<?xml version="1.0" encoding="utf-8"?>
<!-- Generator: Adobe Illustrator 22.1.0, SVG Export Plug-In . SVG Version: 6.00 Build 0)  -->
<svg version="1.1" id="Lag_1" xmlns="http://www.w3.org/2000/svg" xmlns:xlink="http://www.w3.org/1999/xlink" x="0px" y="0px"
	 viewBox="0 0 38.4 38.4" style="enable-background:new 0 0 38.4 38.4;" xml:space="preserve">
<style type="text/css">
	.st0{fill:#C83E30;}
	.st1{fill:#C93D30;}
	.st2{fill:#FFFFFF;}
</style>
<g>
	<g>
		<g>
			<path class="st0" d="M26,32.7c-0.2,0-0.3-0.2-0.3-0.4l3.1-20.9c-0.1-0.1-0.4-0.2-0.7-0.4c-0.2-0.1-0.2-0.3-0.1-0.4
				c0.1-0.2,0.3-0.2,0.4-0.1c0.6,0.3,0.9,0.6,0.9,0.6c0.1,0.1,0.1,0.2,0.1,0.3l-3.2,21.1C26.4,32.6,26.2,32.7,26,32.7z"/>
		</g>
		<g>
			<g>
				<path class="st0" d="M21.1,12.7c-0.2,0-0.3-0.2-0.3-0.4l0.2-1.4c0-0.2,0.2-0.3,0.4-0.3c0.2,0,0.3,0.2,0.3,0.4l-0.2,1.4
					C21.4,12.6,21.2,12.7,21.1,12.7z"/>
			</g>
			<g>
				<path class="st0" d="M23.4,12.8c-0.2,0-0.3-0.2-0.3-0.4l0.2-1.5c0-0.2,0.2-0.3,0.4-0.3c0.2,0,0.3,0.2,0.3,0.4l-0.2,1.5
					C23.7,12.7,23.5,12.8,23.4,12.8z"/>
			</g>
			<g>
				<path class="st0" d="M25.7,12.6c-0.2,0-0.3-0.2-0.3-0.4l0.2-1.5c0-0.2,0.2-0.3,0.4-0.3c0.2,0,0.3,0.2,0.3,0.4l-0.2,1.5
					C26.1,12.5,25.9,12.6,25.7,12.6z"/>
			</g>
			<g>
				<path class="st0" d="M28.1,12.1c-0.2,0-0.3-0.2-0.3-0.4l0.1-1c0-0.2,0.2-0.3,0.4-0.3s0.3,0.2,0.3,0.4l-0.1,1
					C28.5,12,28.3,12.1,28.1,12.1z"/>
			</g>
			<g>
				<path class="st0" d="M19.1,12.3c-0.2,0-0.3-0.2-0.3-0.4l0.2-1.2c0-0.2,0.2-0.3,0.4-0.3s0.3,0.2,0.3,0.4L19.5,12
					C19.5,12.2,19.3,12.3,19.1,12.3z"/>
			</g>
			<g>
				<path class="st0" d="M16.9,11.4c-0.2,0-0.3-0.2-0.3-0.4l0.1-1c0-0.2,0.2-0.3,0.4-0.3s0.3,0.2,0.3,0.4l-0.1,1
					C17.3,11.3,17.1,11.4,16.9,11.4z"/>
			</g>
		</g>
		<g>
			<path class="st0" d="M25.9,33.8c-0.1,0.4-0.3,0.7-0.7,0.8c-1.2,0.3-3.8,0.8-7.4,0.3c-3.6-0.5-6-1.8-7-2.4c-0.3-0.2-0.5-0.6-0.5-1
				l3.4-22.5c0,0,2.3,2.7,7.5,3.5c5.2,0.8,8.2-1.1,8.2-1.1L25.9,33.8z"/>
			<path class="st1" d="M17.7,35.2c-3.6-0.5-6-1.8-7.1-2.5c-0.4-0.3-0.7-0.8-0.6-1.3l3.4-22.5c0-0.1,0.1-0.2,0.2-0.3
				c0.1,0,0.3,0,0.3,0.1c0,0,2.3,2.6,7.3,3.3c5,0.8,7.9-1,7.9-1.1c0.1-0.1,0.2-0.1,0.4,0c0.1,0.1,0.2,0.2,0.1,0.3l-3.4,22.5
				c-0.1,0.5-0.5,0.9-1,1.1C23.9,35.2,21.3,35.7,17.7,35.2z M13.9,9.6l-3.3,21.8c0,0.3,0.1,0.5,0.3,0.7c1.1,0.7,3.4,1.9,6.9,2.4
				s6.1,0.1,7.3-0.3c0.3-0.1,0.4-0.3,0.5-0.5l3.3-21.8c-1.1,0.5-3.8,1.4-7.8,0.8C17.1,12.1,14.8,10.4,13.9,9.6z"/>
		</g>
		<g>
			<path class="st2" d="M12.9,30.1c-0.6-0.1-1.1-0.7-1-1.3l2.1-14c0.1-0.6,0.7-1.1,1.3-1c0.6,0.1,1.1,0.7,1,1.3l-2.1,14
				C14.1,29.8,13.6,30.2,12.9,30.1z M15.3,14.5c-0.3,0-0.5,0.1-0.6,0.4l-2.1,14c0,0.3,0.1,0.5,0.4,0.6c0.3,0,0.5-0.1,0.6-0.4l2.1-14
				C15.7,14.8,15.6,14.5,15.3,14.5z"/>
		</g>
		<g>
			<path class="st2" d="M23.6,32.1c-0.6-0.1-1.1-0.7-1-1.3l2.1-14c0.1-0.6,0.7-1.1,1.3-1s1.1,0.7,1,1.3l-2.1,14
				C24.8,31.7,24.2,32.2,23.6,32.1z M26,16.4c-0.3,0-0.5,0.1-0.6,0.4l-2.1,14c0,0.3,0.1,0.5,0.4,0.6c0.3,0,0.5-0.1,0.6-0.4l2.1-14
				C26.4,16.7,26.2,16.5,26,16.4z"/>
		</g>
		<g>
			<path class="st2" d="M18.2,32.9c-1-0.1-1.7-1.1-1.5-2.1l2.2-14.3c0.1-1,1.1-1.7,2.1-1.5c1,0.1,1.7,1.1,1.5,2.1l-2.2,14.3
				C20.1,32.4,19.2,33.1,18.2,32.9z M20.8,15.7c-0.6-0.1-1.2,0.3-1.3,1l-2.2,14.3c-0.1,0.6,0.3,1.2,1,1.3c0.6,0.1,1.2-0.3,1.3-1
				L21.7,17C21.8,16.3,21.4,15.8,20.8,15.7z"/>
		</g>
		<g>
			<path class="st2" d="M20.4,13.6c-4.4-0.7-6.1-2.7-6.2-2.8c-0.1-0.1,0-0.2,0-0.2c0.1-0.1,0.2,0,0.2,0c0,0,1.8,2.1,6.4,2.7
				c0.4,0,0.7,0.1,1.1,0.1c0.1,0,0.2,0.1,0.2,0.2c0,0.1-0.1,0.2-0.2,0.2c-0.4,0-0.7-0.1-1.1-0.1C20.7,13.6,20.5,13.6,20.4,13.6z"/>
		</g>
		<g>
			<path class="st2" d="M20.4,13.6l-0.2,0c-0.1,0-0.2-0.1-0.1-0.2c0-0.1,0.1-0.1,0.2-0.1c0,0,0,0,0,0l0.2,0c0.1,0,0.3,0,0.4,0.1
				c0.4,0,0.7,0.1,1.1,0.1c0.1,0,0.2,0.1,0.2,0.2c0,0.1-0.1,0.2-0.2,0.2c-0.4,0-0.7-0.1-1.1-0.1C20.7,13.6,20.5,13.6,20.4,13.6z
				 M18.6,13.2C18.6,13.2,18.6,13.2,18.6,13.2c-0.6-0.2-1.1-0.3-1.6-0.5c-0.1,0-0.1-0.1-0.1-0.2c0-0.1,0.1-0.1,0.2-0.1
				c0.5,0.2,1,0.4,1.5,0.5c0.1,0,0.1,0.1,0.1,0.2C18.8,13.1,18.7,13.2,18.6,13.2z M23.5,13.8c-0.1,0-0.1-0.1-0.1-0.2
				c0-0.1,0.1-0.2,0.2-0.2c0.6,0,1.1,0,1.6-0.1c0.1,0,0.2,0.1,0.2,0.1c0,0.1-0.1,0.2-0.1,0.2C24.7,13.8,24.1,13.8,23.5,13.8
				C23.5,13.8,23.5,13.8,23.5,13.8z M15.6,11.9C15.6,11.9,15.6,11.9,15.6,11.9c-1-0.6-1.4-1.1-1.4-1.1c-0.1-0.1,0-0.2,0-0.2
				c0.1-0.1,0.2,0,0.2,0c0,0,0.4,0.5,1.2,1c0.1,0,0.1,0.1,0.1,0.2C15.7,11.9,15.7,11.9,15.6,11.9z M26.8,13.5
				c-0.1,0-0.1-0.1-0.1-0.1c0-0.1,0-0.2,0.1-0.2c0.9-0.2,1.3-0.4,1.3-0.4l0.1,0.2l0,0l0.2,0C28.3,13,27.8,13.2,26.8,13.5
				C26.8,13.5,26.8,13.5,26.8,13.5z"/>
		</g>
		<g>
			<path class="st0" d="M16.6,36.8C16.6,36.8,16.6,36.8,16.6,36.8c-0.6-0.1-1.1-0.2-1.6-0.4c-0.2,0-0.3-0.2-0.2-0.4
				c0-0.2,0.2-0.3,0.4-0.2c0.5,0.1,1,0.3,1.6,0.3c0.2,0,0.3,0.2,0.3,0.4C16.9,36.7,16.7,36.8,16.6,36.8z M18.2,37
				c-0.2,0-0.3-0.2-0.3-0.4c0-0.2,0.2-0.3,0.4-0.3c0.6,0.1,1.1,0.1,1.6,0.1c0.2,0,0.3,0.2,0.3,0.3c0,0.2-0.2,0.3-0.3,0.3
				C19.3,37.1,18.8,37,18.2,37C18.2,37,18.2,37,18.2,37z M13.4,35.9C13.4,35.9,13.4,35.9,13.4,35.9c-0.6-0.2-1.1-0.5-1.6-0.7
				c-0.2-0.1-0.2-0.3-0.1-0.4c0.1-0.2,0.3-0.2,0.4-0.1c0.5,0.2,0.9,0.5,1.5,0.7c0.2,0.1,0.3,0.3,0.2,0.4
				C13.7,35.8,13.5,35.9,13.4,35.9z M21.5,37.1c-0.2,0-0.3-0.1-0.3-0.3c0-0.2,0.1-0.3,0.3-0.3c0.6,0,1.1-0.1,1.6-0.2
				c0.2,0,0.3,0.1,0.4,0.3c0,0.2-0.1,0.3-0.3,0.4C22.7,37,22.1,37.1,21.5,37.1C21.5,37.1,21.5,37.1,21.5,37.1z M24.7,36.5
				c-0.1,0-0.2-0.1-0.3-0.2c-0.1-0.2,0-0.4,0.2-0.4c0.7-0.2,1.1-0.5,1.4-0.7c0.1-0.1,0.4-0.1,0.5,0.1c0.1,0.1,0.1,0.4-0.1,0.5
				c-0.3,0.2-0.8,0.5-1.6,0.8C24.8,36.5,24.8,36.5,24.7,36.5z M10.5,34.3c-0.1,0-0.1,0-0.1-0.1c-0.9-0.6-1.3-1.1-1.3-1.2
				C9,33,9,32.8,9.1,32.7c0.1-0.1,0.4-0.1,0.5,0.1c0,0,0.4,0.5,1.2,1c0.1,0.1,0.2,0.3,0.1,0.5C10.8,34.3,10.6,34.4,10.5,34.3z"/>
		</g>
		<g>
			<path class="st0" d="M18.2,37c-0.2,0-0.3-0.2-0.3-0.4c0-0.2,0.2-0.3,0.4-0.3c1.8,0.2,3.4,0.2,4.8-0.1c0.2,0,0.3,0.1,0.4,0.3
				c0,0.2-0.1,0.3-0.3,0.4C21.8,37.2,20.1,37.2,18.2,37C18.2,37,18.2,37,18.2,37z M13.4,35.9C13.4,35.9,13.4,35.9,13.4,35.9
				c-3-1.2-4.3-2.7-4.3-2.8C9,33,9,32.8,9.1,32.7c0.1-0.1,0.4-0.1,0.5,0.1c0,0,1.2,1.5,4,2.6c0.2,0.1,0.3,0.3,0.2,0.4
				C13.7,35.8,13.5,35.9,13.4,35.9z"/>
		</g>
	</g>
	<g>
		<g>
			<path class="st0" d="M22,5.3c4,0.4,7.3,1.8,7.3,1.8l0.6,3c0,0-4.2,0.8-8.4,0.4c-4.1-0.3-8.3-1.9-8.3-1.9L13.9,6
				C13.9,6,18,5,22,5.3z"/>
			<path class="st1" d="M19.9,10.6c-3.5-0.5-6.6-1.7-6.7-1.7c-0.1,0-0.1-0.1-0.1-0.2l0.7-2.7c0-0.1,0.1-0.1,0.1-0.1
				c0,0,4.1-1,8.1-0.6C26,5.5,29.3,7,29.4,7c0,0,0.1,0.1,0.1,0.1l0.6,3c0,0,0,0.1,0,0.1c0,0-0.1,0.1-0.1,0.1c0,0-4.3,0.8-8.4,0.4
				C21,10.7,20.4,10.7,19.9,10.6z M13.5,8.6c0.7,0.3,4.4,1.6,8.1,1.9c3.6,0.3,7.3-0.3,8.2-0.4l-0.6-2.8c-0.5-0.2-3.6-1.4-7.2-1.8
				c-3.6-0.3-7.3,0.4-7.9,0.6L13.5,8.6z"/>
		</g>
		<g>
			<path class="st2" d="M19.6,7.9c-2.6-0.4-4.1-1.1-4.1-1.1c-0.1,0-0.1-0.1-0.1-0.2c0-0.1,0.1-0.1,0.2-0.1c0,0,1.5,0.7,4,1.1
				c2,0.3,4.1,0.4,6.2,0.2c0.1,0,0.2,0.1,0.2,0.2c0,0.1-0.1,0.2-0.2,0.2C23.8,8.3,21.6,8.2,19.6,7.9z"/>
		</g>
		<g>
			<path class="st2" d="M19.6,7.9c-2.6-0.4-4.1-1.1-4.1-1.1c-0.1,0-0.1-0.1-0.1-0.2c0-0.1,0.1-0.1,0.2-0.1c0,0,1.5,0.7,4,1.1
				c0.6,0.1,1.3,0.2,2,0.2c0.1,0,0.2,0.1,0.2,0.2c0,0.1-0.1,0.2-0.2,0.2C21,8.1,20.3,8,19.6,7.9z"/>
		</g>
		<g>
			<path class="st0" d="M18.6,6.4c-0.3,0-0.4-0.3-0.4-0.5l0.1-1.2c0-0.5,0.3-1,0.7-1.3c0.4-0.3,0.9-0.5,1.4-0.4l3.5,0.3
				c1.1,0.1,1.8,1,1.7,2.1l-0.1,1.4c0,0.3-0.3,0.5-0.5,0.5c-0.3,0-0.5-0.3-0.5-0.5l0.1-1.4c0-0.5-0.3-0.9-0.8-1l-3.5-0.3
				c-0.2,0-0.5,0.1-0.7,0.2c-0.2,0.2-0.3,0.4-0.3,0.6l-0.1,1.2C19.1,6.2,18.9,6.4,18.6,6.4C18.6,6.4,18.6,6.4,18.6,6.4z"/>
		</g>
		<g>
			<path class="st0" d="M17.4,4.5C17.4,4.5,17.4,4.5,17.4,4.5c-0.2,0-0.3-0.2-0.3-0.4L17.4,3c0.2-0.9,1.4-1.5,2.6-1.2
				c0.2,0,0.3,0.2,0.2,0.4c0,0.2-0.2,0.3-0.4,0.2C19,2.3,18.2,2.6,18,3.1l-0.3,1.1C17.7,4.5,17.6,4.6,17.4,4.5z"/>
		</g>
	</g>
</g>
</svg>
