<?xml version="1.0" encoding="utf-8"?>
<!-- Generator: Adobe Illustrator 22.1.0, SVG Export Plug-In . SVG Version: 6.00 Build 0)  -->
<svg version="1.1" id="Lag_1" xmlns="http://www.w3.org/2000/svg" xmlns:xlink="http://www.w3.org/1999/xlink" x="0px" y="0px"
	 viewBox="0 0 638 638" style="enable-background:new 0 0 638 638;" xml:space="preserve">
<style type="text/css">
	.st0{fill:#C93D31;}
</style>
<g>
	<path class="st0" d="M588.7,623.5c-8.4,0-16.9-3.2-23.3-9.7l-539-539c-12.9-12.9-12.9-33.8,0-46.7c12.9-12.9,33.8-12.9,46.7,0
		l539,539c12.9,12.9,12.9,33.8,0,46.7C605.6,620.3,597.1,623.5,588.7,623.5z"/>
</g>
<g>
	<path class="st0" d="M49.7,623.5c-8.4,0-16.9-3.2-23.3-9.7c-12.9-12.9-12.9-33.8,0-46.7l539-539c12.9-12.9,33.8-12.9,46.7,0
		c12.9,12.9,12.9,33.8,0,46.7l-539,539C66.6,620.3,58.1,623.5,49.7,623.5z"/>
</g>
</svg>
