<?xml version="1.0" encoding="utf-8"?>
<!-- Generator: Adobe Illustrator 22.1.0, SVG Export Plug-In . SVG Version: 6.00 Build 0)  -->
<svg version="1.1" id="Lag_1" xmlns="http://www.w3.org/2000/svg" xmlns:xlink="http://www.w3.org/1999/xlink" x="0px" y="0px"
	 viewBox="0 0 830 830" style="enable-background:new 0 0 830 830;" xml:space="preserve">
<style type="text/css">
	.st0{fill:#C93F31;}
	.st1{fill:none;stroke:#FFFFFF;stroke-width:5;stroke-linecap:round;stroke-linejoin:round;stroke-miterlimit:10;}
	.st2{fill:none;stroke:#C93F31;stroke-width:7;stroke-linecap:round;stroke-linejoin:round;stroke-miterlimit:10;}
	.st3{fill:none;stroke:#C93F31;stroke-width:14;stroke-linecap:round;stroke-linejoin:round;stroke-miterlimit:10;}
	.st4{fill:none;stroke:#C93F31;stroke-width:8;stroke-linecap:round;stroke-linejoin:round;stroke-miterlimit:10;}
	.st5{fill:#FFFFFF;stroke:#C93F31;stroke-width:8;stroke-linecap:round;stroke-linejoin:round;stroke-miterlimit:10;}
	.st6{fill:#C93F31;stroke:#C93F31;stroke-width:8;stroke-linecap:round;stroke-linejoin:round;stroke-miterlimit:10;}
	.st7{fill:none;stroke:#FFFFFF;stroke-width:8;stroke-linecap:round;stroke-linejoin:round;stroke-miterlimit:10;}
</style>
<g>
	<path class="st0" d="M272.7,221.3c-3.7-3.4-8.6-5.2-13.7-5.2c-29.4,0.3-156.8,5-203.9,62.2c-45.9,55.8,30.1,81.1,52.3,87.1
		c4.4,1.2,8.4,3.4,11.8,6.5c11.8,10.6,34.5,35.8,6.8,51.6c-35.8,20.5-43.3,19.5-17.9,69.4s111,43.6,111,43.6s64.1,10,72.8-92.2
		C300,349.4,303.1,249.6,272.7,221.3z"/>
	<path class="st1" d="M233.2,229c0,0-100.1,34.6,10,115.8"/>
	<path class="st1" d="M274.9,376.4c0,0-66.8-1-39.3,74.4s-74.8,55.3-92.9,42.8"/>
	<polyline class="st2" points="219.2,536.5 229,589.8 186.4,600.8 191.3,618.1 	"/>
	<polyline class="st2" points="277.4,617.7 275.8,604.7 229,589.8 290,577.8 293.3,589.4 	"/>
	<polyline class="st2" points="229,589.8 196.2,580.3 200.4,596.5 	"/>
	<g>
		<path class="st3" d="M566.7,291.2c0,0-130.2-80.9-213.6,5.4l-3.9-21.5"/>
		<line class="st3" x1="353.4" y1="296.9" x2="406.4" y2="287.1"/>
	</g>
	<g>
		<path class="st3" d="M356.5,532.5c0,0,130.2,80.9,213.6-5.4l3.9,21.5"/>
		<line class="st3" x1="569.8" y1="526.8" x2="516.8" y2="536.6"/>
	</g>
	<path class="st4" d="M260.4,540c0,0,47.7-12.8,44.9-89.2"/>
	<path class="st4" d="M38.2,276.1c0,0-34.7,39.8,11.6,76.2"/>
	<polyline class="st4" points="208.8,609.6 229.5,606.2 249,611.4 	"/>
	<g>
		<g>
			<path class="st5" d="M687.6,237.4c0,0,4.7-14.2,37-0.3l81.6,65.1L737,516.3c0,0-34.5-23.1-31.9,13.6"/>
			<polygon class="st6" points="777.7,311.7 687.6,237.4 618.4,442 705,529.9 			"/>
			<line class="st7" x1="691.4" y1="257.6" x2="633.5" y2="431.2"/>
		</g>
		<line class="st4" x1="627" y1="481" x2="670" y2="523"/>
		<path class="st4" d="M679,226c0,0,4-12,32-8"/>
	</g>
</g>
</svg>
