<?xml version="1.0" encoding="utf-8"?>
<!-- Generator: Adobe Illustrator 22.1.0, SVG Export Plug-In . SVG Version: 6.00 Build 0)  -->
<svg version="1.1" id="Lag_1" xmlns="http://www.w3.org/2000/svg" xmlns:xlink="http://www.w3.org/1999/xlink" x="0px" y="0px"
	 viewBox="0 0 38.4 38.4" style="enable-background:new 0 0 38.4 38.4;" xml:space="preserve">
<style type="text/css">
	.st0{fill:#C93D30;}
	.st1{fill:#C83E30;}
	.st2{fill:#FFFFFF;}
</style>
<g>
	<g>
		<path class="st0" d="M24.6,7.6c-0.5-2.7-2.5-4.8-5-5.5L21,9.4l-6.3,1.1l-1.3-7.2c-2,1.6-3,4.1-2.5,6.7c0.5,2.7,2.5,4.8,5,5.5
			c0,0.2,0,0.3,0,0.5l3.2,17.7c0.2,1.1,1.3,1.9,2.5,1.7l1.7-0.3c1.1-0.2,1.9-1.3,1.7-2.5L21.8,15c0-0.1-0.1-0.3-0.1-0.4
			C23.9,13.1,25.1,10.4,24.6,7.6z"/>
		<path class="st1" d="M23.4,35.5l-1.7,0.3c-1.3,0.2-2.5-0.6-2.8-1.9l-3.2-17.7c0-0.1,0-0.2,0-0.4c-2.6-0.8-4.5-3-5-5.6
			c-0.5-2.6,0.5-5.3,2.6-7c0.1-0.1,0.2-0.1,0.3,0c0.1,0,0.2,0.1,0.2,0.2l1.3,6.9l5.7-1l-1.3-7c0-0.1,0-0.2,0.1-0.2
			c0.1-0.1,0.2-0.1,0.3-0.1c2.7,0.8,4.6,2.9,5.1,5.7c0.5,2.7-0.6,5.5-2.8,7.2c0,0.1,0.1,0.2,0.1,0.3l3.2,17.7
			C25.6,34,24.7,35.3,23.4,35.5z M13.2,3.9c-1.7,1.6-2.5,3.9-2.1,6.2c0.5,2.5,2.4,4.6,4.8,5.3c0.1,0,0.2,0.1,0.2,0.3
			c0,0.2,0,0.3,0,0.5l3.2,17.7c0.2,1,1.2,1.7,2.2,1.5l1.7-0.3c1-0.2,1.7-1.2,1.5-2.2l-3.2-17.7c0-0.1-0.1-0.3-0.1-0.4
			c0-0.1,0-0.2,0.1-0.3c2.2-1.5,3.3-4.1,2.8-6.7c-0.4-2.4-2.1-4.3-4.4-5.1l1.3,6.9c0,0.1-0.1,0.3-0.2,0.3l-6.3,1.1
			c-0.1,0-0.3-0.1-0.3-0.2L13.2,3.9z"/>
	</g>
	<g>
		<path class="st2" d="M18.8,15.3l-3,0.5c-0.1,0-0.3-0.1-0.3-0.2c0-0.1,0.1-0.3,0.2-0.3l3-0.5c0.1,0,0.3,0.1,0.3,0.2
			C19.1,15.1,19,15.3,18.8,15.3z"/>
	</g>
	<g>
		<path class="st2" d="M18.8,17.1l-2.6,0.5c-0.1,0-0.3-0.1-0.3-0.2c0-0.1,0.1-0.3,0.2-0.3l2.6-0.5c0.1,0,0.3,0.1,0.3,0.2
			C19,16.9,18.9,17.1,18.8,17.1z"/>
	</g>
	<g>
		<path class="st2" d="M18.8,18.9l-2.3,0.4c-0.1,0-0.3-0.1-0.3-0.2c0-0.1,0.1-0.3,0.2-0.3l2.3-0.4c0.1,0,0.3,0.1,0.3,0.2
			C19,18.7,18.9,18.9,18.8,18.9z"/>
	</g>
	<g>
		<path class="st2" d="M18.6,20.7l-1.7,0.3c-0.1,0-0.3-0.1-0.3-0.2c0-0.1,0.1-0.3,0.2-0.3l1.7-0.3c0.1,0,0.3,0.1,0.3,0.2
			C18.8,20.6,18.7,20.7,18.6,20.7z"/>
	</g>
	<g>
		<path class="st2" d="M18.2,22.6l-1,0.2c-0.1,0-0.3-0.1-0.3-0.2c0-0.1,0.1-0.3,0.2-0.3l1-0.2c0.1,0,0.3,0.1,0.3,0.2
			C18.4,22.4,18.3,22.6,18.2,22.6z"/>
	</g>
	<g>
		<path class="st2" d="M18.1,11.1l-3.3,0.6c-0.1,0-0.3-0.1-0.3-0.2c0-0.1,0.1-0.3,0.2-0.3l3.3-0.6c0.1,0,0.3,0.1,0.3,0.2
			S18.2,11.1,18.1,11.1z"/>
	</g>
	<g>
		<path class="st2" d="M21.2,10.6l-0.2,0c-0.1,0-0.3-0.1-0.3-0.2c0-0.1,0.1-0.3,0.2-0.3l0.2,0c0.1,0,0.3,0.1,0.3,0.2
			S21.3,10.5,21.2,10.6z M20,10.8l-1,0.2c-0.1,0-0.3-0.1-0.3-0.2c0-0.1,0.1-0.3,0.2-0.3l1-0.2c0.1,0,0.3,0.1,0.3,0.2
			C20.2,10.6,20.1,10.8,20,10.8z M17.9,11.2l-1,0.2c-0.1,0-0.3-0.1-0.3-0.2s0.1-0.3,0.2-0.3l1-0.2c0.1,0,0.3,0.1,0.3,0.2
			S18,11.1,17.9,11.2z M15.8,11.5l-1,0.2c-0.1,0-0.3-0.1-0.3-0.2c0-0.1,0.1-0.3,0.2-0.3l1-0.2c0.1,0,0.3,0.1,0.3,0.2
			C16,11.4,15.9,11.5,15.8,11.5z"/>
	</g>
	<g>
		<path class="st1" d="M19.6,8.9c-0.1,0-0.3-0.1-0.3-0.2l-0.6-3.1c0-0.1,0.1-0.3,0.2-0.3c0.1,0,0.3,0.1,0.3,0.2l0.6,3.1
			C19.9,8.7,19.8,8.8,19.6,8.9z"/>
	</g>
	<g>
		<path class="st1" d="M19.6,8.9c-0.1,0-0.3-0.1-0.3-0.2l-0.4-2.1c0-0.1,0.1-0.3,0.2-0.3c0.1,0,0.3,0.1,0.3,0.2l0.4,2.1
			C19.9,8.7,19.8,8.8,19.6,8.9z M18.9,4.7c-0.1,0-0.3-0.1-0.3-0.2l-0.1-0.6c0-0.1,0.1-0.3,0.2-0.3c0.1,0,0.3,0.1,0.3,0.2l0.1,0.6
			C19.1,4.5,19,4.7,18.9,4.7z"/>
	</g>
</g>
</svg>
